# xmcd
#
# Track frame offsets:
#	150
#	8005
#	24092
#	41895
#	57567
#	77670
#	102912
#	125582
#	142372
#	161660
#	186142
#	204715
#	213790
#	232442
#	252387
#
# Disc length: 3776 seconds
#
# Revision: 1
# Processed by: cddbd v1.5.1PL0 Copyright (c) Steve Scherf et al.
# Submitted via: EasyCDDAExtractor 7.0.5.1
#
DISCID=dc0ebe0f
DTITLE=alicia keys - songs in A minor(sampler)
DYEAR=2002
DGENRE=Soul
TTITLE0=piano& i(intro)
TTITLE1=girfriend
TTITLE2=how come you dont call me
TTITLE3=fallen
TTITLE4=troubles
TTITLE5=rock with u
TTITLE6=a womans worth
TTITLE7=jane doe
TTITLE8=goodbye
TTITLE9=the life
TTITLE10=mr man
TTITLE11=never felt this way(interlude)
TTITLE12=butterflies
TTITLE13=why do i feel so sad
TTITLE14=caged bird(outro)
EXTD=
EXTT0=
EXTT1=
EXTT2=
EXTT3=
EXTT4=
EXTT5=
EXTT6=
EXTT7=
EXTT8=
EXTT9=
EXTT10=
EXTT11=
EXTT12=
EXTT13=
EXTT14=
PLAYORDER=
